<?xml version="1.0" standalone="no"?>
<!DOCTYPE svg PUBLIC "-//W3C//DTD SVG 20010904//EN"
 "http://www.w3.org/TR/2001/REC-SVG-20010904/DTD/svg10.dtd">
<svg version="1.0" xmlns="http://www.w3.org/2000/svg"
 width="280.000000pt" height="280.000000pt" viewBox="0 0 280.000000 280.000000"
 preserveAspectRatio="xMidYMid meet">
<metadata>
Created by potrace 1.14, written by Peter Selinger 2001-2017
</metadata>
<g transform="translate(0.000000,280.000000) scale(0.100000,-0.100000)"
fill="#000000" stroke="none">
<path d="M1841 2303 c-281 -54 -505 -293 -690 -738 -23 -55 -46 -109 -50 -120
-13 -29 -80 -232 -95 -285 -24 -82 -76 -282 -81 -309 -17 -89 -17 -97 3 -121
17 -21 28 -25 73 -24 147 1 371 23 559 54 30 5 71 12 90 15 287 48 634 177
763 286 92 76 151 147 195 234 171 339 42 743 -298 937 -49 27 -149 64 -201
73 -72 13 -198 12 -268 -2z"/>
<path d="M383 1756 c-103 -38 -171 -99 -216 -195 -72 -152 -29 -319 131 -510
60 -71 198 -210 253 -253 19 -14 45 -36 58 -47 13 -12 27 -21 30 -22 3 0 15
-2 26 -4 36 -7 62 22 95 107 40 106 86 270 103 373 13 76 15 247 3 290 -15 53
-32 95 -38 95 -5 0 -8 6 -8 14 0 8 -21 35 -47 61 -101 103 -259 139 -390 91z"/>
</g>
</svg>
